<?xml version="1.0" standalone="no"?>
<!DOCTYPE svg PUBLIC "-//W3C//DTD SVG 20010904//EN"
 "http://www.w3.org/TR/2001/REC-SVG-20010904/DTD/svg10.dtd">
<svg version="1.0" xmlns="http://www.w3.org/2000/svg"
 width="500.000000pt" height="500.000000pt" viewBox="0 0 500.000000 500.000000"
 preserveAspectRatio="xMidYMid meet">
<metadata>
Created by potrace 1.14, written by Peter Selinger 2001-2017
</metadata>
<g transform="translate(0.000000,500.000000) scale(0.100000,-0.100000)"
fill="#000000" stroke="none">
<path d="M1630 4510 c-97 -97 -107 -330 -25 -575 10 -31 -47 37 -116 138 -70
102 -157 266 -187 352 -23 67 -37 79 -52 40 -41 -107 40 -362 186 -595 29 -45
-116 113 -175 192 -32 42 -80 113 -106 157 -26 45 -52 81 -58 81 -19 0 0 -151
28 -230 42 -116 85 -195 172 -320 15 -21 12 -20 -27 10 -56 43 -220 207 -220
220 0 14 -17 12 -23 -2 -7 -20 20 -115 55 -187 35 -74 115 -186 174 -245 l39
-39 -40 22 c-22 12 -70 46 -108 76 -37 30 -69 55 -72 55 -13 0 -3 -46 20 -93
31 -65 105 -156 176 -215 58 -48 45 -50 -44 -5 -37 18 -49 21 -53 10 -15 -39
52 -130 138 -186 l61 -40 -39 -3 c-33 -3 -39 -7 -42 -28 -4 -37 56 -102 118
-129 56 -24 62 -31 25 -26 -14 1 -32 -3 -41 -10 -15 -11 -15 -14 0 -43 18 -35
81 -86 134 -108 36 -16 40 -21 15 -21 -10 0 -26 -1 -35 -2 -54 -4 22 -92 102
-120 38 -14 50 -21 38 -25 -10 -3 -25 -8 -33 -11 -44 -14 13 -80 97 -112 l53
-21 -27 -12 c-70 -33 5 -110 124 -128 l53 -8 -37 -14 c-24 -9 -38 -21 -38 -31
0 -32 127 -78 203 -74 l28 2 -21 -22 c-20 -21 -20 -22 -2 -38 31 -28 118 -53
194 -56 13 -1 0 -25 -52 -98 -38 -54 -76 -108 -85 -120 -30 -43 -227 -123
-418 -169 -299 -73 -420 -153 -420 -278 0 -32 6 -45 32 -68 28 -25 30 -31 19
-51 -30 -56 7 -123 74 -133 l37 -6 -15 -36 c-20 -49 -10 -88 29 -108 30 -16
97 -21 116 -9 6 3 7 -5 2 -22 -11 -38 -4 -75 16 -90 25 -19 92 -15 142 8 39
17 46 18 53 5 16 -28 39 -46 61 -46 41 0 90 19 128 50 l38 30 24 -24 c21 -21
30 -23 60 -16 38 8 97 41 117 65 9 11 17 12 36 3 50 -23 144 34 184 112 28 55
42 144 45 280 l2 125 129 21 c313 51 496 136 667 307 99 99 166 198 254 375
77 153 116 196 213 231 51 19 65 20 101 11 22 -6 44 -9 47 -6 3 4 -13 33 -35
65 -27 40 -43 74 -46 104 -16 126 -101 200 -232 200 -85 0 -154 -27 -233 -91
-46 -38 -53 -40 -47 -20 13 39 105 226 183 368 132 241 196 406 239 607 45
216 37 458 -16 458 -8 0 -20 -17 -27 -38 -37 -108 -176 -376 -194 -377 -3 0
-7 28 -8 63 -4 94 -24 182 -42 182 -14 0 -101 -160 -149 -275 l-23 -55 -22 80
c-27 99 -32 108 -55 95 -23 -12 -92 -146 -116 -225 l-18 -60 -13 30 c-7 17
-13 35 -14 41 0 6 -9 19 -20 29 -15 14 -23 15 -34 6 -25 -21 -68 -133 -84
-217 l-16 -81 -21 31 c-33 49 -58 46 -85 -9 -18 -36 -23 -63 -22 -122 1 -61
-2 -74 -14 -69 -20 8 -44 -34 -48 -84 -2 -24 -10 -48 -18 -54 -23 -17 -37 -49
-39 -94 -2 -23 -5 -42 -9 -42 -3 0 -82 75 -177 168 -485 474 -707 797 -767
1113 -15 80 -13 241 3 304 18 70 10 84 -29 45z"/>
</g>
</svg>
